<svg width="26" height="27" viewBox="0 0 26 27" fill="none" xmlns="http://www.w3.org/2000/svg">
<path d="M13 0.20166C10.4288 0.20166 7.91543 0.964097 5.77759 2.39255C3.63975 3.82101 1.97351 5.85134 0.989572 8.22677C0.00563264 10.6022 -0.251811 13.2161 0.249797 15.7378C0.751405 18.2596 1.98953 20.576 3.80762 22.394C5.6257 24.2121 7.94208 25.4503 10.4638 25.9519C12.9856 26.4535 15.5994 26.196 17.9749 25.2121C20.3503 24.2281 22.3806 22.5619 23.8091 20.4241C25.2376 18.2862 26 15.7728 26 13.2017C26 9.75384 24.6304 6.44724 22.1924 4.00927C19.7544 1.5713 16.4478 0.20166 13 0.20166ZM11.1429 18.3924L6.5 13.7495L7.97643 12.2731L11.1429 15.4395L18.0236 8.5588L19.5056 10.0315L11.1429 18.3924Z" fill="url(#paint0_linear_2069_344)"/>
<defs>
<linearGradient id="paint0_linear_2069_344" x1="-17.9288" y1="13.2017" x2="26" y2="13.2017" gradientUnits="userSpaceOnUse">
<stop stop-color="#00ECFF"/>
<stop offset="0.335" stop-color="#00BED7"/>
<stop offset="1" stop-color="#006288"/>
</linearGradient>
</defs>
</svg>
