<svg width="1252" height="375" viewBox="0 0 1252 375" fill="none" xmlns="http://www.w3.org/2000/svg">
<path d="M15.8588 28.3877L16.1188 133.045C16.1324 138.548 20.5906 143.01 26.094 143.027L1224.19 146.837C1229.68 146.855 1234.12 151.283 1234.17 156.764L1235.79 359.1" stroke="#409EC6" stroke-width="2" stroke-dasharray="15 15"/>
<circle cx="16" cy="16" r="13.5" fill="#409EC6" stroke="#409EC6" stroke-width="5"/>
<circle cx="16" cy="16" r="12.5" fill="#409EC6" stroke="#17263F" stroke-width="5"/>
<path d="M1249.5 359C1249.5 366.456 1243.46 372.5 1236 372.5C1228.54 372.5 1222.5 366.456 1222.5 359C1222.5 351.544 1228.54 345.5 1236 345.5C1243.46 345.5 1249.5 351.544 1249.5 359Z" fill="#409EC6" stroke="#409EC6" stroke-width="5"/>
<path d="M1248.17 359C1248.17 365.723 1242.72 371.174 1236 371.174C1229.28 371.174 1223.83 365.723 1223.83 359C1223.83 352.277 1229.28 346.826 1236 346.826C1242.72 346.826 1248.17 352.277 1248.17 359Z" fill="#409EC6" stroke="#17263F" stroke-width="5"/>
</svg>
