<svg width="210" height="208" viewBox="0 0 210 208" fill="none" xmlns="http://www.w3.org/2000/svg">
<path d="M204 108.376C204.025 128.061 198.064 147.31 186.871 163.689C175.679 180.068 159.757 192.841 141.121 200.39C122.486 207.94 101.973 209.928 82.1785 206.103C62.3841 202.278 44.1976 192.811 29.92 178.901C15.6423 164.99 5.91519 147.261 1.96923 127.957C-1.97674 108.652 0.0358035 88.64 7.75221 70.4516C15.4686 52.2631 28.5421 36.7161 45.3187 25.7774C62.0952 14.8387 81.8209 9.00002 102 9V108.222L204 108.376Z" fill="url(#paint0_linear_2110_491)"/>
<path d="M183.306 121.554C190.607 77.4625 160.064 35.9172 115.087 28.7602C70.1098 21.6031 27.7301 51.5444 20.4293 95.636C13.1285 139.727 43.6712 181.273 88.6484 188.43C133.626 195.587 176.005 165.645 183.306 121.554Z" fill="#0F2238"/>
<path d="M164.209 0.00797992C154.846 0.911741 146.06 4.92085 139.263 11.3912C132.466 17.8616 128.052 26.4177 126.73 35.6849C126.73 35.8403 126.73 36.0267 126.73 36.1821C126.233 40.6568 123.992 44.7589 120.488 47.6066C116.983 50.4542 112.496 51.8199 107.99 51.4101C104.47 51.0671 100.924 51.0671 97.4028 51.4101C86.1428 52.2534 75.3929 56.4255 66.5327 63.391C57.6726 70.3565 51.1063 79.7976 47.6766 90.5026C44.2469 101.208 44.1102 112.688 47.2841 123.471C50.458 134.254 56.7977 143.847 65.4895 151.02C74.1814 158.192 84.8289 162.616 96.0656 163.725C107.302 164.833 118.616 162.576 128.554 157.241C138.492 151.907 146.601 143.739 151.841 133.786C157.081 123.833 159.213 112.549 157.962 101.383C157.55 96.8994 158.923 92.4343 161.784 88.9474C164.646 85.4606 168.769 83.2303 173.266 82.7361H173.766C184.614 81.2956 194.461 75.6744 201.186 67.0823C207.912 58.4902 210.978 47.6142 209.725 36.795C208.473 25.9759 203.001 16.0786 194.488 9.23344C185.976 2.38824 175.102 -0.857622 164.209 0.194449V0.00797992Z" fill="url(#paint1_linear_2110_491)"/>
<circle cx="168" cy="41.7988" r="30" fill="#010529"/>
<defs>
<linearGradient id="paint0_linear_2110_491" x1="-140.672" y1="108.5" x2="204" y2="108.5" gradientUnits="userSpaceOnUse">
<stop stop-color="#00ECFF"/>
<stop offset="1" stop-color="#006288"/>
</linearGradient>
<linearGradient id="paint1_linear_2110_491" x1="-68.779" y1="82" x2="210" y2="82" gradientUnits="userSpaceOnUse">
<stop stop-color="#00ECFF"/>
<stop offset="1" stop-color="#006288"/>
</linearGradient>
</defs>
</svg>
