<svg width="157" height="157" viewBox="0 0 157 157" fill="none" xmlns="http://www.w3.org/2000/svg">
<path d="M72.2161 2.29194C72.1382 1.27423 71.2496 0.510082 70.2341 0.612117C50.9074 2.55384 32.9798 11.6618 20.0074 26.1787C6.62409 41.1554 -0.44766 60.7283 0.272342 80.8007C0.992344 100.873 9.44828 119.889 23.8703 133.868C37.8495 147.418 56.3836 155.219 75.7996 155.771C76.8199 155.8 77.6514 154.974 77.6562 153.953V153.953C77.661 152.932 76.8372 152.103 75.817 152.073C57.3554 151.526 39.7368 144.1 26.4429 131.214C12.7062 117.899 4.65202 99.7868 3.96623 80.6682C3.28044 61.5496 10.0162 42.9067 22.7636 28.6416C35.1 14.8364 52.1413 6.1668 70.5163 4.29869C71.5317 4.19546 72.294 3.30966 72.2161 2.29194V2.29194Z" fill="url(#paint0_linear_2086_27)"/>
<defs>
<linearGradient id="paint0_linear_2086_27" x1="78.542" y1="-107.06" x2="77.7895" y2="155.802" gradientUnits="userSpaceOnUse">
<stop stop-color="#00ECFF"/>
<stop offset="0.335" stop-color="#00BED7"/>
<stop offset="1" stop-color="#006288"/>
</linearGradient>
</defs>
</svg>
