<svg width="226" height="188" viewBox="0 0 226 188" fill="none" xmlns="http://www.w3.org/2000/svg">
<path d="M25.1294 93.7767L41.4891 93.3478L41.5963 97.4377L25.2366 97.8667L25.612 112.181L8.82334 96.2507L24.754 79.462L25.1294 93.7767Z" fill="url(#paint0_linear_2086_22)"/>
<path d="M124.924 2.78857C124.823 1.56925 123.753 0.659433 122.537 0.788703C99.3847 3.24872 77.9589 14.2887 62.5096 31.7779C46.5709 49.8211 38.229 73.33 39.2297 97.3841C40.2305 121.438 50.4964 144.173 67.8788 160.83C84.7274 176.975 106.996 186.197 130.272 186.726C131.496 186.753 132.486 185.758 132.485 184.534V184.534C132.484 183.311 131.491 182.323 130.268 182.294C108.136 181.765 86.9668 172.985 70.9441 157.631C54.3877 141.765 44.6096 120.111 43.6564 97.1999C42.7032 74.2888 50.6488 51.8969 65.8301 34.711C80.522 18.0793 100.888 7.5708 122.9 5.20555C124.117 5.07484 125.024 4.00788 124.924 2.78857V2.78857Z" fill="url(#paint1_linear_2086_22)"/>
<defs>
<linearGradient id="paint0_linear_2086_22" x1="26.2036" y1="134.744" x2="24.754" y2="79.462" gradientUnits="userSpaceOnUse">
<stop stop-color="#00ECFF"/>
<stop offset="0.335" stop-color="#00BED7"/>
<stop offset="1" stop-color="#006288"/>
</linearGradient>
<linearGradient id="paint1_linear_2086_22" x1="131.756" y1="-128.326" x2="132.658" y2="186.749" gradientUnits="userSpaceOnUse">
<stop stop-color="#00ECFF"/>
<stop offset="0.335" stop-color="#00BED7"/>
<stop offset="1" stop-color="#006288"/>
</linearGradient>
</defs>
</svg>
