<svg width="226" height="188" viewBox="0 0 226 188" fill="none" xmlns="http://www.w3.org/2000/svg">
<path d="M200.769 93.2396L184.41 93.6686L184.303 89.5787L200.662 89.1497L200.287 74.835L217.075 90.7657L201.145 107.554L200.769 93.2396Z" fill="url(#paint0_linear_2086_13)"/>
<path d="M100.975 184.228C101.075 185.447 102.146 186.357 103.362 186.228C126.514 183.768 147.94 172.728 163.389 155.239C179.328 137.195 187.67 113.686 186.669 89.6323C185.668 65.5782 175.402 42.8435 158.02 26.1866C141.171 10.0412 118.903 0.819072 95.6264 0.290667C94.4033 0.262901 93.4123 1.25847 93.4136 2.48192V2.48192C93.4149 3.70536 94.408 4.69323 95.6311 4.72245C117.763 5.25112 138.932 14.0315 154.955 29.3854C171.511 45.2509 181.289 66.9053 182.242 89.8165C183.196 112.728 175.25 135.119 160.069 152.305C145.377 168.937 125.01 179.446 102.999 181.811C101.782 181.942 100.875 183.008 100.975 184.228V184.228Z" fill="url(#paint1_linear_2086_13)"/>
<defs>
<linearGradient id="paint0_linear_2086_13" x1="199.695" y1="52.2727" x2="201.145" y2="107.554" gradientUnits="userSpaceOnUse">
<stop stop-color="#00ECFF"/>
<stop offset="0.335" stop-color="#00BED7"/>
<stop offset="1" stop-color="#006288"/>
</linearGradient>
<linearGradient id="paint1_linear_2086_13" x1="94.1431" y1="315.342" x2="93.2412" y2="0.267021" gradientUnits="userSpaceOnUse">
<stop stop-color="#00ECFF"/>
<stop offset="0.335" stop-color="#00BED7"/>
<stop offset="1" stop-color="#006288"/>
</linearGradient>
</defs>
</svg>
