<svg width="1368" height="1138" viewBox="0 0 1368 1138" fill="none" xmlns="http://www.w3.org/2000/svg">
<path opacity="0.0144928" d="M1495.27 782.406L1577.88 566.926C1580.05 561.266 1579.9 554.978 1577.46 549.429L1441.9 241.33C1439.98 236.967 1436.75 233.307 1432.66 230.859L1181.39 80.4404C1173.97 76.0007 1164.69 76.0941 1157.36 80.6822L987.994 186.759C980.669 191.347 976.534 199.655 977.291 208.265L1002.94 499.994C1003.35 504.743 1005.24 509.245 1008.32 512.877L1226.34 769.335C1230.27 773.954 1235.86 776.835 1241.9 777.354L1471.83 797.088C1482.04 797.965 1491.6 791.977 1495.27 782.406Z" stroke="url(#paint0_linear_2081_505)" stroke-width="4"/>
<path opacity="0.0289855" d="M1461.12 797.108L1554.54 587.947C1557.01 582.404 1557.2 576.107 1555.05 570.429L1437.06 258.546C1435.37 254.073 1432.33 250.24 1428.35 247.578L1187.22 85.9773C1180.05 81.1714 1170.79 80.7858 1163.24 84.9788L989.623 181.451C982.077 185.644 977.515 193.709 977.808 202.337L987.667 492.447C987.83 497.226 989.478 501.836 992.381 505.634L1194.89 770.552C1198.58 775.375 1204.03 778.545 1210.04 779.37L1436.99 810.514C1447.12 811.904 1456.95 806.442 1461.12 797.108Z" stroke="url(#paint1_linear_2081_505)" stroke-width="4"/>
<path opacity="0.0434783" d="M1426.73 810.687L1530.52 608.382C1533.3 602.973 1533.82 596.685 1531.97 590.892L1431.58 276.212C1430.12 271.643 1427.27 267.644 1423.43 264.774L1192.9 92.6351C1186 87.4769 1176.78 86.6148 1169.04 90.4021L991.71 177.117C983.965 180.905 978.989 188.705 978.819 197.325L973.134 484.972C973.039 489.767 974.445 494.472 977.157 498.428L1163.88 770.892C1167.32 775.907 1172.6 779.357 1178.57 780.488L1401.98 822.786C1412 824.683 1422.07 819.758 1426.73 810.687Z" stroke="url(#paint2_linear_2081_505)" stroke-width="4"/>
<path opacity="0.057971" d="M1392.17 823.143L1505.88 628.201C1508.94 622.941 1509.8 616.68 1508.26 610.789L1425.43 294.292C1424.21 289.638 1421.56 285.483 1417.86 282.411L1198.39 100.396C1191.76 94.9 1182.62 93.5655 1174.7 96.9377L994.198 173.774C986.276 177.146 980.901 184.661 980.269 193.247L959.326 477.605C958.972 482.403 960.133 487.191 962.643 491.296L1133.35 770.386C1136.52 775.58 1141.63 779.303 1147.55 780.737L1366.88 833.907C1376.76 836.302 1387.04 831.926 1392.17 823.143Z" stroke="url(#paint3_linear_2081_505)" stroke-width="4"/>
<path opacity="0.0724638" d="M1357.49 834.477L1480.63 647.375C1483.99 642.281 1485.18 636.064 1483.95 630.091L1418.59 312.746C1417.62 308.019 1415.18 303.718 1411.63 300.452L1203.6 109.24C1197.27 103.421 1188.23 101.619 1180.15 104.568L997.028 171.434C988.951 174.383 983.194 181.59 982.102 190.118L946.231 470.386C945.619 475.173 946.527 480.032 948.829 484.274L1103.34 769.068C1106.24 774.428 1111.16 778.414 1117.01 780.149L1331.74 843.882C1341.46 846.767 1351.92 842.947 1357.49 834.477Z" stroke="url(#paint4_linear_2081_505)" stroke-width="4"/>
<path opacity="0.0869565" d="M1322.78 844.694L1454.84 665.88C1458.47 660.967 1459.99 654.813 1459.08 648.774L1411.06 331.534C1410.33 326.747 1408.11 322.311 1404.72 318.857L1208.5 119.141C1202.48 113.017 1193.56 110.754 1185.35 113.272L1000.14 170.103C991.935 172.622 985.813 179.503 984.266 187.949L933.839 463.351C932.967 468.113 933.62 473.029 935.705 477.398L1073.89 766.972C1076.52 772.484 1081.23 776.724 1086.99 778.756L1296.62 852.72C1306.16 856.084 1316.77 852.827 1322.78 844.694Z" stroke="url(#paint5_linear_2081_505)" stroke-width="4"/>
<path opacity="0.101449" d="M1288.07 853.802L1428.53 683.692C1432.42 678.975 1434.28 672.901 1433.68 666.813L1402.8 350.615C1402.33 345.781 1400.34 341.22 1397.12 337.587L1213.02 130.072C1207.33 123.659 1198.54 120.942 1190.23 123.025L1003.49 169.789C995.169 171.872 988.701 178.408 986.706 186.746L922.133 456.533C921.002 461.257 921.396 466.218 923.258 470.704L1045.04 764.137C1047.39 769.787 1051.89 774.27 1057.54 776.595L1261.6 860.433C1270.92 864.264 1281.65 861.576 1288.07 853.802Z" stroke="url(#paint6_linear_2081_505)" stroke-width="4"/>
<path opacity="0.115942" d="M1253.44 861.815L1401.75 700.792C1405.9 696.285 1408.08 690.309 1407.81 684.188L1393.83 369.949C1393.61 365.081 1391.85 360.407 1388.81 356.602L1217.1 142.005C1211.76 135.32 1203.14 132.159 1194.73 133.801L1007 170.493C998.598 172.136 991.803 178.309 989.364 186.516L911.096 449.971C909.708 454.642 909.84 459.633 911.472 464.225L1016.84 760.603C1018.89 766.376 1023.16 771.091 1028.7 773.703L1226.72 867.038C1235.81 871.323 1246.63 869.208 1253.44 861.815Z" stroke="url(#paint7_linear_2081_505)" stroke-width="4"/>
<path opacity="0.130435" d="M1218.95 868.744L1374.53 717.159C1378.93 712.877 1381.43 707.016 1381.48 700.879L1384.11 389.494C1384.15 384.605 1382.64 379.83 1379.78 375.862L1220.71 154.903C1215.71 147.965 1207.28 144.37 1198.82 145.569L1010.63 172.214C1002.16 173.413 995.061 179.207 992.188 187.259L900.71 443.694C899.067 448.299 898.934 453.308 900.331 457.993L989.302 756.409C991.055 762.289 995.086 767.226 1000.5 770.119L1192.05 872.553C1200.89 877.279 1211.77 875.738 1218.95 868.744Z" stroke="url(#paint8_linear_2081_505)" stroke-width="4"/>
<path opacity="0.144928" d="M1184.64 874.611L1346.94 732.78C1351.56 728.735 1354.38 723.006 1354.76 716.871L1373.66 409.209C1373.96 404.312 1372.69 399.448 1370.03 395.326L1223.78 168.733C1219.15 161.561 1210.93 157.543 1202.42 158.296L1014.31 174.948C1005.81 175.701 998.422 181.101 995.125 188.975L890.955 437.736C889.061 442.261 888.662 447.274 889.818 452.041L962.473 751.599C963.922 757.572 967.701 762.717 972.968 765.886L1157.65 877.001C1166.21 882.152 1177.12 881.186 1184.64 874.611Z" stroke="url(#paint9_linear_2081_505)" stroke-width="4"/>
<path opacity="0.15942" d="M1150.59 879.436L1318.99 747.64C1323.84 743.845 1326.97 738.266 1327.67 732.15L1362.46 429.052C1363.02 424.161 1362 419.22 1359.54 414.954L1226.26 183.457C1222.01 176.07 1214.02 171.641 1205.51 171.947L1018 178.688C1009.48 178.994 1001.83 183.986 998.118 191.659L881.81 432.129C879.667 436.56 879.001 441.562 879.913 446.4L936.377 746.217C937.516 752.267 941.033 757.608 946.141 761.044L1123.58 880.407C1131.84 885.967 1142.75 885.575 1150.59 879.436Z" stroke="url(#paint10_linear_2081_505)" stroke-width="4"/>
<path opacity="0.173913" d="M1116.84 883.243L1290.75 761.728C1295.81 758.196 1299.23 752.783 1300.26 746.702L1350.51 448.981C1351.33 444.11 1350.56 439.104 1348.32 434.703L1228.13 199.032C1224.26 191.451 1216.53 186.624 1208.02 186.485L1021.63 183.423C1013.12 183.283 1005.23 187.853 1001.12 195.303L873.251 426.9C870.863 431.225 869.931 436.203 870.593 441.098L911.039 740.309C911.865 746.42 915.111 751.943 920.047 755.639L1089.88 882.8C1097.83 888.751 1108.7 888.93 1116.84 883.243Z" stroke="url(#paint11_linear_2081_505)" stroke-width="4"/>
<path opacity="0.188406" d="M1083.44 886.058L1262.26 775.037C1267.5 771.779 1271.22 766.547 1272.57 760.519L1337.82 468.954C1338.9 464.116 1338.39 459.059 1336.36 454.534L1229.33 215.417C1225.86 207.662 1218.39 202.452 1209.91 201.868L1025.16 189.14C1016.68 188.556 1008.57 192.692 1004.07 199.898L865.253 422.078C862.627 426.282 861.429 431.222 861.838 436.163L886.485 733.921C886.994 740.077 889.958 745.768 894.709 749.715L1056.61 884.21C1064.22 890.534 1075.03 891.279 1083.44 886.058Z" stroke="url(#paint12_linear_2081_505)" stroke-width="4"/>
<path opacity="0.202899" d="M1050.45 887.913L1233.55 787.56C1238.97 784.586 1242.97 779.552 1244.64 773.594L1324.38 488.931C1325.72 484.141 1325.47 479.044 1323.67 474.406L1229.82 232.567C1226.75 224.658 1219.58 219.081 1211.16 218.056L1028.52 195.822C1020.1 194.797 1011.8 198.49 1006.92 205.431L857.791 417.69C854.931 421.761 853.468 426.649 853.621 431.622L862.732 727.101C862.922 733.285 865.597 739.132 870.15 743.32L1023.82 884.671C1031.08 891.35 1041.8 892.654 1050.45 887.913Z" stroke="url(#paint13_linear_2081_505)" stroke-width="4"/>
<path opacity="0.217391" d="M1017.91 888.839L1204.67 799.295C1210.26 796.615 1214.53 791.794 1216.51 785.923L1310.2 508.872C1311.8 504.142 1311.81 499.02 1310.24 494.28L1229.57 250.435C1226.91 242.395 1220.05 236.467 1211.7 235.005L1031.68 203.453C1023.34 201.991 1014.87 205.231 1009.63 211.888L850.837 413.761C847.75 417.686 846.024 422.508 845.92 427.5L839.8 719.898C839.67 726.095 842.046 732.081 846.39 736.501L991.563 884.221C998.455 891.235 1009.04 893.09 1017.91 888.839Z" stroke="url(#paint14_linear_2081_505)" stroke-width="4"/>
<path opacity="0.231884" d="M985.876 888.87L1175.67 810.239C1181.4 807.863 1185.93 803.269 1188.23 797.501L1295.29 528.734C1297.14 524.078 1297.42 518.944 1296.09 514.113L1228.55 268.973C1226.3 260.822 1219.76 254.56 1211.52 252.667L1034.58 212.008C1026.34 210.115 1017.73 212.895 1012.15 219.248L844.365 410.313C841.059 414.079 839.072 418.821 838.708 423.819L817.704 712.36C817.253 718.552 819.325 724.663 823.448 729.304L959.877 882.896C966.385 890.223 976.822 892.621 985.876 888.87Z" stroke="url(#paint15_linear_2081_505)" stroke-width="4"/>
<path opacity="0.246377" d="M954.385 888.044L1146.58 820.394C1152.45 818.329 1157.23 813.977 1159.83 808.33L1279.65 548.479C1281.76 543.911 1282.31 538.778 1281.22 533.867L1226.72 288.13C1224.89 279.89 1218.69 273.313 1210.58 270.995L1037.17 221.464C1029.06 219.146 1020.32 221.46 1014.42 227.491L838.344 407.368C834.825 410.962 832.582 415.612 831.958 420.603L796.455 704.537C795.684 710.708 797.444 716.928 801.334 721.78L928.806 880.738C934.916 888.358 945.172 891.287 954.385 888.044Z" stroke="url(#paint16_linear_2081_505)" stroke-width="4"/>
<path opacity="0.26087" d="M923.48 886.401L1117.46 829.765C1123.44 828.019 1128.46 823.921 1131.36 818.41L1263.31 568.068C1265.66 563.601 1266.48 558.484 1265.64 553.505L1224.05 307.857C1222.65 299.549 1216.81 292.676 1208.84 289.941L1039.41 231.796C1031.44 229.061 1022.61 230.903 1016.4 236.596L832.743 404.946C829.021 408.358 826.525 412.9 825.64 417.871L776.062 696.48C774.97 702.613 776.414 708.927 780.061 713.977L898.389 877.79C904.088 885.68 914.137 889.129 923.48 886.401Z" stroke="url(#paint17_linear_2081_505)" stroke-width="4"/>
<path opacity="0.275362" d="M893.2 883.98L1088.34 838.357C1094.42 836.936 1099.66 833.107 1102.86 827.748L1246.26 587.464C1248.86 583.111 1249.95 578.022 1249.36 572.988L1220.53 328.1C1219.55 319.747 1214.09 312.597 1206.28 309.454L1041.25 242.974C1033.45 239.831 1024.56 241.198 1018.06 246.537L827.532 403.065C823.615 406.283 820.871 410.704 819.727 415.642L756.531 688.238C755.121 694.317 756.243 700.708 759.638 705.945L868.665 874.097C873.942 882.235 883.756 886.188 893.2 883.98Z" stroke="url(#paint18_linear_2081_505)" stroke-width="4"/>
<path opacity="0.289855" d="M863.582 880.826L1059.27 846.178C1065.43 845.088 1070.87 841.539 1074.36 836.348L1228.54 606.628C1231.37 602.403 1232.73 597.357 1232.39 592.279L1216.14 348.807C1215.58 340.431 1210.5 333.024 1202.89 329.484L1042.65 254.967C1035.04 251.427 1026.11 252.316 1019.34 257.286L822.68 401.742C818.579 404.754 815.593 409.042 814.189 413.933L737.866 679.861C736.141 685.87 736.937 692.323 740.071 697.733L839.669 869.705C844.512 878.068 854.066 882.511 863.582 880.826Z" stroke="url(#paint19_linear_2081_505)" stroke-width="4"/>
<path opacity="0.304348" d="M834.659 876.982L1030.28 853.238C1036.5 852.484 1042.14 849.226 1045.9 844.218L1210.15 625.526C1213.22 621.44 1214.84 616.45 1214.75 611.341L1210.85 369.923C1210.71 361.545 1206.03 353.903 1198.63 349.976L1043.58 267.742C1036.18 263.815 1027.23 264.226 1020.21 268.813L818.155 400.989C813.879 403.786 810.657 407.927 808.995 412.759L720.068 671.399C718.032 677.322 718.499 683.819 721.361 689.39L811.43 864.662C815.831 873.225 825.1 878.142 834.659 876.982Z" stroke="url(#paint20_linear_2081_505)" stroke-width="4"/>
<path opacity="0.318841" d="M806.461 872.493L1001.42 859.551C1007.68 859.136 1013.5 856.18 1017.53 851.37L1191.11 644.121C1194.41 640.189 1196.29 635.268 1196.47 630.141L1204.65 391.394C1204.93 383.035 1200.66 375.18 1193.49 370.879L1043.99 281.263C1036.82 276.963 1027.87 276.896 1020.64 281.088L813.923 400.821C809.484 403.392 806.032 407.373 804.116 412.132L703.134 662.901C700.79 668.722 700.926 675.247 703.51 680.965L783.978 859.016C787.929 867.757 796.889 873.129 806.461 872.493Z" stroke="url(#paint21_linear_2081_505)" stroke-width="4"/>
<path opacity="0.333333" d="M779.015 867.41L972.724 865.132C979.01 865.058 984.991 862.415 989.277 857.816L1171.45 662.383C1174.96 658.615 1177.11 653.778 1177.55 648.645L1197.53 413.166C1198.23 404.849 1194.37 396.802 1187.45 392.141L1043.85 295.497C1036.92 290.836 1028.02 290.293 1020.58 294.079L809.95 401.248C805.359 403.584 801.685 407.394 799.517 412.066L687.057 654.419C684.411 660.121 684.214 666.658 686.513 672.509L757.337 852.82C760.83 861.714 769.46 867.522 779.015 867.41Z" stroke="url(#paint22_linear_2081_505)" stroke-width="4"/>
<path opacity="0.347826" d="M752.347 861.777L944.227 869.995C950.519 870.265 956.646 867.942 961.179 863.57L1151.19 680.277C1154.91 676.686 1157.32 671.945 1158.01 666.819L1189.47 435.183C1190.6 426.928 1187.17 418.711 1180.51 413.705L1043.12 310.401C1036.47 305.394 1027.62 304.379 1020 307.748L806.204 402.279C801.473 404.371 797.585 407.996 795.169 412.569L671.831 645.997C668.889 651.566 668.359 658.097 670.365 664.067L731.529 846.123C734.56 855.146 742.837 861.37 752.347 861.777Z" stroke="url(#paint23_linear_2081_505)" stroke-width="4"/>
<path opacity="0.362319" d="M726.479 855.647L915.968 874.162C922.248 874.775 928.504 872.782 933.272 868.648L1130.35 697.775C1134.28 694.372 1136.94 689.741 1137.89 684.635L1180.49 457.391C1182.02 449.219 1179.03 440.856 1172.65 435.519L1041.79 325.939C1035.41 320.601 1026.65 319.119 1018.88 322.063L802.651 403.921C797.792 405.76 793.7 409.19 791.039 413.651L657.446 637.686C654.214 643.106 653.351 649.615 655.058 655.689L706.574 838.979C709.139 848.106 717.043 854.724 726.479 855.647Z" stroke="url(#paint24_linear_2081_505)" stroke-width="4"/>
<path opacity="0.376812" d="M701.427 849.066L887.979 877.649C894.228 878.607 900.596 876.95 905.585 873.068L1108.96 714.846C1113.08 711.642 1115.99 707.134 1117.2 702.061L1170.57 479.733C1172.51 471.665 1169.95 463.18 1163.88 457.527L1039.8 342.067C1033.73 336.415 1025.08 334.472 1017.18 336.983L799.254 406.178C794.282 407.757 789.994 410.98 787.094 415.317L643.885 629.531C640.371 634.787 639.176 641.257 640.58 647.421L682.485 831.439C684.582 840.646 692.093 847.636 701.427 849.066Z" stroke="url(#paint25_linear_2081_505)" stroke-width="4"/>
<path opacity="0.391304" d="M677.212 842.089L860.298 880.481C866.497 881.781 872.958 880.467 878.157 876.849L1087.05 731.463C1091.35 728.47 1094.5 724.097 1095.98 719.07L1159.72 502.157C1162.06 494.213 1159.94 485.628 1154.18 479.678L1037.16 358.745C1031.4 352.795 1022.89 350.399 1014.87 352.471L795.985 409.055C790.912 410.366 786.438 413.371 783.305 417.571L631.137 621.579C627.35 626.656 625.825 633.07 626.92 639.309L659.279 823.557C660.906 832.819 668.008 840.159 677.212 842.089Z" stroke="url(#paint26_linear_2081_505)" stroke-width="4"/>
<path opacity="0.405797" d="M653.843 834.763L832.953 882.68C839.084 884.321 845.62 883.355 851.014 880.011L1064.65 747.6C1069.12 744.827 1072.51 740.604 1074.24 735.634L1147.94 524.607C1150.67 516.807 1149 508.146 1143.57 501.916L1033.82 375.929C1028.4 369.699 1020.05 366.858 1011.95 368.487L792.806 412.551C787.646 413.589 782.998 416.365 779.637 420.417L619.181 613.872C615.13 618.757 613.277 625.099 614.06 631.396L636.963 815.385C638.12 824.679 644.796 832.343 653.843 834.763Z" stroke="url(#paint27_linear_2081_505)" stroke-width="4"/>
<path opacity="0.42029" d="M631.328 827.142L805.973 884.273C812.017 886.25 818.609 885.636 824.185 882.578L1041.77 763.235C1046.41 760.692 1050.03 756.629 1052.02 751.731L1135.24 547.031C1138.34 539.395 1137.12 530.681 1132.04 524.19L1029.78 393.574C1024.7 387.084 1016.53 383.809 1008.37 384.991L789.683 416.668C784.45 417.426 779.638 419.964 776.057 423.855L607.995 606.455C603.689 611.133 601.512 617.386 601.981 623.728L615.542 806.979C616.23 816.279 622.465 824.242 631.328 827.142Z" stroke="url(#paint28_linear_2081_505)" stroke-width="4"/>
<path opacity="0.434783" d="M609.678 819.276L779.391 885.284C785.329 887.593 791.96 887.336 797.701 884.574L1018.47 778.344C1023.26 776.041 1027.1 772.151 1029.34 767.337L1121.63 569.377C1125.11 561.923 1124.34 553.18 1119.61 546.447L1025.01 411.637C1020.28 404.905 1012.32 401.207 1004.13 401.94L786.587 421.403C781.296 421.876 776.332 424.166 772.538 427.885L597.56 599.368C593.009 603.827 590.513 609.975 590.665 616.345L595.022 798.39C595.244 807.672 601.025 815.91 609.678 819.276Z" stroke="url(#paint29_linear_2081_505)" stroke-width="4"/>
<path opacity="0.449275" d="M588.894 811.216L753.23 885.742C759.044 888.379 765.693 888.48 771.585 886.022L994.765 792.908C999.691 790.853 1003.75 787.149 1006.24 782.43L1107.12 591.594C1110.96 584.339 1110.64 575.591 1106.28 568.637L1019.5 430.073C1015.14 423.118 1007.41 419.011 999.211 419.295L783.48 426.751C778.146 426.936 773.042 428.969 769.043 432.504L587.847 592.652C583.063 596.88 580.252 602.906 580.086 609.288L575.401 789.672C575.161 798.912 580.476 807.398 588.894 811.216Z" stroke="url(#paint30_linear_2081_505)" stroke-width="4"/>
<path opacity="0.463768" d="M568.977 803.013L727.515 885.675C733.188 888.633 739.836 889.095 745.863 886.949L970.692 806.908C975.744 805.109 980.009 801.602 982.749 796.992L1091.73 613.63C1095.92 606.593 1096.04 597.863 1092.07 590.707L1013.24 448.834C1009.26 441.678 1001.78 437.175 993.595 437.01L780.332 432.707C774.971 432.599 769.74 434.368 765.544 437.708L578.83 586.343C573.825 590.328 570.705 596.217 570.221 602.596L556.677 780.876C555.98 790.051 560.818 798.759 568.977 803.013Z" stroke="url(#paint31_linear_2081_505)" stroke-width="4"/>
<path opacity="0.478261" d="M549.925 794.718L702.271 885.115C707.784 888.386 714.412 889.209 720.557 887.383L946.285 820.329C951.451 818.794 955.914 815.494 958.895 811.005L1075.49 635.44C1080 628.637 1080.58 619.948 1076.99 612.612L1006.21 467.877C1002.62 460.541 995.416 455.657 987.273 455.046L777.111 439.265C771.737 438.861 766.392 440.358 762.009 443.493L570.479 580.481C565.265 584.21 561.844 589.946 561.041 596.306L538.843 772.056C537.696 781.143 542.049 790.044 549.925 794.718Z" stroke="url(#paint32_linear_2081_505)" stroke-width="4"/>
<path opacity="0.492754" d="M531.733 786.38L677.516 884.092C682.853 887.668 689.441 888.85 695.688 887.352L921.578 833.156C926.845 831.892 931.496 828.811 934.714 824.454L1058.4 656.974C1063.24 650.421 1064.25 641.797 1061.06 634.302L998.422 487.156C995.232 479.66 988.314 474.412 980.236 473.358L773.786 446.414C768.415 445.713 762.97 446.93 758.409 449.85L562.764 575.097C557.354 578.56 553.639 584.129 552.518 590.454L521.892 763.261C520.301 772.237 524.161 781.305 531.733 786.38Z" stroke="url(#paint33_linear_2081_505)" stroke-width="4"/>
<path opacity="0.507246" d="M514.394 778.048L653.273 882.636C658.415 886.509 664.945 888.049 671.276 886.883L896.608 845.376C901.961 844.389 906.791 841.537 910.239 837.324L1040.5 678.188C1045.65 671.9 1047.09 663.363 1044.31 655.731L989.862 506.624C987.075 498.991 980.468 493.395 972.48 491.904L770.326 454.143C764.975 453.144 759.443 454.075 754.714 456.77L555.652 570.224C550.059 573.412 546.058 578.797 544.621 585.072L505.81 754.541C503.785 763.384 507.147 772.591 514.394 778.048Z" stroke="url(#paint34_linear_2081_505)" stroke-width="4"/>
<path opacity="0.521739" d="M497.895 769.77L629.555 880.782C634.487 884.94 640.938 886.836 647.336 886.007L871.408 856.978C876.834 856.276 881.832 853.661 885.504 849.605L1021.81 699.037C1027.25 693.029 1029.13 684.601 1026.75 676.854L980.53 526.236C978.152 518.488 971.873 512.563 964 510.64L766.7 462.441C761.385 461.143 755.781 461.782 750.895 464.243L549.107 565.893C543.345 568.795 539.068 573.983 537.317 580.192L490.584 745.945C488.134 754.633 490.993 763.951 497.895 769.77Z" stroke="url(#paint35_linear_2081_505)" stroke-width="4"/>
<path opacity="0.536232" d="M482.224 761.593L606.38 878.561C611.085 882.995 617.439 885.243 623.886 884.755L846.017 867.957C851.501 867.543 856.655 865.176 860.545 861.287L1002.36 719.481C1008.08 713.766 1010.38 705.47 1008.41 697.63L970.429 545.948C968.465 538.108 962.53 531.873 954.796 529.526L762.882 471.294C757.619 469.697 751.958 470.039 746.925 472.258L543.094 562.131C537.178 564.739 532.634 569.716 530.573 575.844L476.196 737.52C473.332 746.033 475.687 755.434 482.224 761.593Z" stroke="url(#paint36_linear_2081_505)" stroke-width="4"/>
<path opacity="0.550725" d="M467.367 753.563L583.761 876.009C588.225 880.705 594.462 883.3 600.939 883.157L820.469 878.305C825.998 878.183 831.297 876.073 835.396 872.363L982.192 739.481C988.168 734.071 990.876 725.928 989.33 718.017L959.563 565.716C958.017 557.805 952.442 551.281 944.869 548.52L758.844 480.687C753.649 478.793 747.945 478.834 742.778 480.802L537.576 558.964C531.522 561.27 526.721 566.023 524.353 572.054L462.627 729.313C459.362 737.631 461.211 747.087 467.367 753.563Z" stroke="url(#paint37_linear_2081_505)" stroke-width="4"/>
<path opacity="0.565217" d="M453.303 745.723L561.708 873.157C565.915 878.103 572.017 881.04 578.507 881.243L794.802 888.018C800.359 888.192 805.791 886.347 810.093 882.825L961.326 758.997C967.546 753.905 970.655 745.935 969.528 737.977L947.938 585.495C946.812 577.537 941.612 570.744 934.223 567.579L754.558 490.603C749.447 488.413 743.717 488.149 738.426 489.859L532.514 556.414C526.336 558.411 521.289 562.927 518.621 568.846L449.855 721.366C446.201 729.469 447.544 738.952 453.303 745.723Z" stroke="url(#paint38_linear_2081_505)" stroke-width="4"/>
<path opacity="0.57971" d="M440.013 738.116L540.231 870.042C544.168 875.224 550.115 878.496 556.599 879.046L769.051 897.095C774.621 897.568 780.174 895.996 784.669 892.672L939.803 777.997C946.248 773.233 949.748 765.457 949.041 757.473L935.565 605.245C934.858 597.261 930.046 590.221 922.865 586.664L749.998 501.024C744.989 498.543 739.246 497.97 733.846 499.415L527.869 554.505C521.582 556.186 516.302 560.452 513.337 566.245L437.854 713.724C433.826 721.594 434.665 731.076 440.013 738.116Z" stroke="url(#paint39_linear_2081_505)" stroke-width="4"/>
<path opacity="0.594203" d="M427.473 730.784L519.336 866.696C522.989 872.099 528.763 875.698 535.223 876.597L743.251 905.534C748.82 906.308 754.48 905.016 759.161 901.902L917.657 796.446C924.31 792.019 928.189 784.456 927.902 776.471L922.453 624.921C922.166 616.935 917.755 609.671 910.801 605.733L745.141 511.931C740.248 509.161 734.51 508.279 729.012 509.451L523.599 553.252C517.22 554.612 511.719 558.616 508.464 564.268L426.598 706.426C422.21 714.045 422.55 723.499 427.473 730.784Z" stroke="url(#paint40_linear_2081_505)" stroke-width="4"/>
<path opacity="0.608696" d="M415.659 723.765L499.03 863.155C502.385 868.765 507.969 872.682 514.386 873.927L717.441 913.338C722.992 914.416 728.746 913.41 733.603 910.514L894.93 814.315C901.773 810.234 906.017 802.904 906.147 794.938L908.619 644.485C908.749 636.52 904.749 629.053 898.044 624.751L739.963 523.305C735.203 520.25 729.486 519.057 723.902 519.951L519.663 552.672C513.209 553.706 507.499 557.438 503.961 562.935L416.057 699.511C411.325 706.863 411.171 716.262 415.659 723.765Z" stroke="url(#paint41_linear_2081_505)" stroke-width="4"/>
<path opacity="0.623188" d="M404.543 717.097L479.314 859.451C482.361 865.252 487.737 869.477 494.092 871.068L691.654 920.512C697.172 921.893 703.006 921.18 708.029 918.512L871.66 831.575C878.674 827.849 883.269 820.768 883.814 812.845L894.076 663.897C894.622 655.974 891.041 648.33 884.605 643.677L734.442 535.122C729.832 531.79 724.151 530.283 718.495 530.895L516.02 552.779C509.506 553.483 503.602 556.932 499.789 562.26L406.202 693.015C401.142 700.084 400.5 709.401 404.543 717.097Z" stroke="url(#paint42_linear_2081_505)" stroke-width="4"/>
<path opacity="0.637681" d="M394.096 710.815L460.191 855.621C462.918 861.595 468.068 866.118 474.344 868.051L665.926 927.061C671.395 928.746 677.295 928.331 682.475 925.898L847.889 848.202C855.055 844.837 859.986 838.022 860.943 830.164L878.844 683.119C879.801 675.26 876.649 667.462 870.5 662.475L728.558 547.362C724.113 543.757 718.484 541.939 712.771 542.262L512.627 553.584C506.071 553.954 499.986 557.11 495.905 562.255L396.998 686.973C391.629 693.744 390.507 702.954 394.096 710.815Z" stroke="url(#paint43_linear_2081_505)" stroke-width="4"/>
<path opacity="0.652174" d="M384.288 704.954L441.659 851.697C444.056 857.827 448.964 862.637 455.142 864.908L640.292 932.994C645.695 934.981 651.648 934.87 656.973 932.681L823.66 864.174C830.958 861.175 836.21 854.643 837.572 846.871L862.943 702.115C864.305 694.343 861.588 686.415 855.745 681.112L722.291 560.001C718.028 556.132 712.468 554.002 706.711 554.033L509.442 555.094C502.86 555.13 496.608 557.983 492.27 562.933L388.413 681.418C382.751 687.878 381.16 696.954 384.288 704.954Z" stroke="url(#paint44_linear_2081_505)" stroke-width="4"/>
<path opacity="0.666667" d="M375.086 699.543L423.717 847.712C425.775 853.98 430.425 859.064 436.486 861.669L614.785 938.321C620.108 940.609 626.098 940.804 631.558 938.867L799.017 879.471C806.428 876.842 811.983 870.609 813.744 862.945L846.395 720.85C848.156 713.186 845.879 705.153 840.359 699.553L715.625 573.015C711.558 568.889 706.084 566.45 700.296 566.185L506.422 557.317C499.831 557.015 493.428 559.558 488.841 564.3L380.409 676.378C374.473 682.514 372.424 691.432 375.086 699.543Z" stroke="url(#paint45_linear_2081_505)" stroke-width="4"/>
<path opacity="0.681159" d="M366.456 694.612L406.358 843.699C408.068 850.087 412.445 855.431 418.372 858.365L589.438 943.052C594.663 945.638 600.676 946.144 606.26 944.467L774.001 894.074C781.506 891.82 787.346 885.899 789.499 878.364L829.222 739.29C831.375 731.755 829.542 723.643 824.36 717.764L708.541 586.378C704.686 582.005 699.313 579.258 693.51 578.695L503.522 560.253C496.94 559.614 490.401 561.84 485.574 566.361L372.948 671.881C366.758 677.681 364.262 686.418 366.456 694.612Z" stroke="url(#paint46_linear_2081_505)" stroke-width="4"/>
<path opacity="0.695652" d="M358.364 690.188L389.578 839.691C390.933 846.18 395.022 851.769 400.797 855.025L564.285 947.202C569.397 950.084 575.417 950.903 581.113 949.492L748.66 907.972C756.239 906.094 762.347 900.499 764.882 893.113L811.453 757.407C813.988 750.021 812.602 741.854 807.773 735.718L701.028 600.067C697.399 595.456 692.144 592.405 686.34 591.541L500.702 563.906C494.145 562.93 487.486 564.831 482.432 569.121L365.994 667.953C359.569 673.406 356.641 681.938 358.364 690.188Z" stroke="url(#paint47_linear_2081_505)" stroke-width="4"/>
<path opacity="0.710145" d="M350.772 686.295L373.369 835.718C374.362 842.289 378.149 848.109 383.754 851.679L539.356 950.786C544.338 953.959 550.351 955.094 556.147 953.955L723.038 921.151C730.671 919.651 737.029 914.393 739.936 907.177L793.113 775.168C796.02 767.951 795.082 759.755 790.62 753.382L693.069 614.054C689.681 609.215 684.561 605.865 678.769 604.699L497.918 568.273C491.404 566.961 484.64 568.53 479.37 572.577L359.506 664.613C352.865 669.712 349.52 678.017 350.772 686.295Z" stroke="url(#paint48_linear_2081_505)" stroke-width="4"/>
<path opacity="0.724638" d="M343.644 682.955L357.72 831.812C358.347 838.444 361.818 844.479 367.237 848.354L514.68 953.82C519.518 957.281 525.508 958.732 531.392 957.871L697.18 933.604C704.849 932.482 711.436 927.573 714.705 920.546L774.231 792.547C777.499 785.52 777.008 777.319 772.925 770.731L684.655 628.314C681.521 623.258 676.552 619.613 670.789 618.144L495.129 573.349C488.674 571.703 481.823 572.936 476.347 576.73L353.443 661.884C346.608 666.62 342.861 674.677 343.644 682.955Z" stroke="url(#paint49_linear_2081_505)" stroke-width="4"/>
<path opacity="0.73913" d="M336.942 680.187L342.621 828.002C342.877 834.675 346.021 840.907 351.236 845.078L490.289 956.323C494.966 960.065 500.917 961.834 506.878 961.256L671.135 945.324C678.818 944.579 685.616 940.028 689.233 933.208L754.837 809.518C758.454 802.698 758.409 794.518 754.716 787.739L675.775 642.817C672.91 637.558 668.107 633.624 662.387 631.851L492.294 579.127C485.915 577.15 478.992 578.043 473.324 581.574L347.765 659.781C340.756 664.147 336.625 671.935 336.942 680.187Z" stroke="url(#paint50_linear_2081_505)" stroke-width="4"/>
<path opacity="0.753623" d="M330.624 678.009L328.057 824.316C327.939 831.01 330.744 837.422 335.739 841.88L466.207 958.317C470.707 962.333 476.604 964.42 482.629 964.13L644.943 956.309C652.622 955.939 659.61 951.756 663.563 945.161L734.96 826.059C738.913 819.464 739.309 811.331 736.016 804.383L666.418 657.539C663.835 652.089 659.214 647.872 653.551 645.796L489.368 585.6C483.082 583.296 476.105 583.844 470.257 587.103L342.427 658.32C335.264 662.31 330.768 669.811 330.624 678.009Z" stroke="url(#paint51_linear_2081_505)" stroke-width="4"/>
<path opacity="0.768116" d="M324.653 676.434L314.015 820.782C313.522 827.476 315.977 834.05 320.736 838.782L442.464 959.82C446.772 964.103 452.599 966.509 458.674 966.51L618.653 966.558C626.31 966.56 633.466 962.752 637.741 956.399L714.634 842.148C718.909 835.795 719.743 827.732 716.858 820.64L656.579 672.451C654.29 666.824 649.868 662.331 644.278 659.953L486.315 592.755C480.139 590.128 473.124 590.33 467.109 593.307L337.389 657.511C330.094 661.121 325.251 668.317 324.653 676.434Z" stroke="url(#paint52_linear_2081_505)" stroke-width="4"/>
<path opacity="0.782609" d="M318.989 675.475L300.481 817.427C299.611 824.099 301.706 830.817 306.215 835.812L419.083 960.857C423.184 965.4 428.926 968.121 435.039 968.419L592.31 976.073C599.925 976.443 607.229 973.016 611.811 966.923L693.891 857.765C698.473 851.671 699.738 843.703 697.268 836.49L646.254 687.526C644.271 681.736 640.062 676.975 634.56 674.297L483.096 600.579C477.046 597.635 470.01 597.487 463.842 600.175L332.608 657.364C325.203 660.591 320.034 667.465 318.989 675.475Z" stroke="url(#paint53_linear_2081_505)" stroke-width="4"/>
<path opacity="0.797101" d="M313.591 675.141L287.436 814.275C286.19 820.905 287.916 827.747 292.159 832.991L396.089 961.451C399.967 966.244 405.608 969.28 411.746 969.876L565.958 984.858C573.512 985.592 580.943 982.552 585.816 976.732L672.765 872.893C677.638 867.074 679.326 859.224 677.277 851.916L635.436 702.734C633.771 696.797 629.792 691.777 624.391 688.801L479.671 609.055C473.763 605.8 466.724 605.302 460.417 607.693L328.041 657.884C320.547 660.725 315.072 667.264 313.591 675.141Z" stroke="url(#paint54_linear_2081_505)" stroke-width="4"/>
<path opacity="0.811594" d="M308.419 675.439L274.863 811.352C273.241 817.917 274.592 824.863 278.555 830.343L373.504 961.627C377.145 966.663 382.669 970.01 388.818 970.908L539.641 992.924C547.117 994.016 554.653 991.365 559.8 985.834L651.291 887.519C656.438 881.988 658.541 874.281 656.915 866.902L624.125 718.05C622.788 711.982 619.053 706.712 613.769 703.442L476.006 618.166C470.255 614.607 463.23 613.758 456.798 615.847L323.646 659.076C316.083 661.532 310.325 667.72 308.419 675.439Z" stroke="url(#paint55_linear_2081_505)" stroke-width="4"/>
<path opacity="0.826087" d="M303.431 676.374L262.739 808.678C260.746 815.158 261.714 822.188 265.384 827.889L351.346 961.413C354.736 966.679 360.128 970.335 366.275 971.536L513.399 1000.28C520.78 1001.72 528.399 999.463 533.804 994.234L629.501 901.629C634.905 896.4 637.412 888.859 636.213 881.435L612.318 733.445C611.319 727.262 607.842 721.754 602.69 718.192L472.062 627.892C466.484 624.036 459.49 622.838 452.947 624.617L319.379 660.941C311.768 663.011 305.749 668.836 303.431 676.374Z" stroke="url(#paint56_linear_2081_505)" stroke-width="4"/>
<path opacity="0.84058" d="M298.589 677.948L251.049 806.275C248.688 812.65 249.267 819.742 252.632 825.649L329.638 960.835C332.763 966.322 338.006 970.282 344.138 971.788L487.279 1006.94C494.547 1008.72 502.228 1006.86 507.871 1001.94L607.433 915.214C613.076 910.298 615.975 902.945 615.204 895.501L600.017 748.893C599.367 742.612 596.163 736.875 591.157 733.027L467.808 638.21C462.418 634.067 455.472 632.521 448.834 633.986L315.2 663.478C307.563 665.163 301.306 670.614 298.589 677.948Z" stroke="url(#paint57_linear_2081_505)" stroke-width="4"/>
<path opacity="0.855072" d="M293.85 680.159L239.767 804.164C237.043 810.411 237.229 817.545 240.276 823.642L308.394 959.922C311.24 965.616 316.32 969.877 322.423 971.688L461.318 1012.91C468.456 1015.03 476.178 1013.56 482.041 1008.97L585.12 928.265C590.983 923.675 594.261 916.53 593.917 909.093L587.223 764.365C586.929 758.005 584.012 752.052 579.166 747.922L463.21 649.097C458.022 644.676 451.141 642.784 444.423 643.93L311.064 666.682C303.421 667.985 296.95 673.052 293.85 680.159Z" stroke="url(#paint58_linear_2081_505)" stroke-width="4"/>
<path opacity="0.869565" d="M289.178 683.006L228.873 802.361C225.792 808.46 225.582 815.614 228.3 821.884L287.631 958.701C290.186 964.592 295.086 969.147 301.147 971.264L435.556 1018.22C442.549 1020.66 450.29 1019.59 456.353 1015.33L562.598 940.776C568.661 936.521 572.304 929.607 572.385 922.2L573.94 779.834C574.01 773.414 571.393 767.257 566.722 762.851L458.237 660.527C453.266 655.838 446.467 653.603 439.684 654.426L306.934 670.545C299.305 671.472 292.643 676.147 289.178 683.006Z" stroke="url(#paint59_linear_2081_505)" stroke-width="4"/>
<path opacity="0.884058" d="M284.533 686.483L218.345 800.886C214.914 806.816 214.305 813.968 216.685 820.393L267.365 957.206C269.614 963.279 274.32 968.122 280.326 970.545L410.034 1022.88C416.866 1025.64 424.605 1024.96 430.849 1021.05L539.904 952.745C546.147 948.835 550.14 942.17 550.642 934.82L560.174 795.276C560.615 788.815 558.312 782.467 553.83 777.792L452.863 672.474C448.122 667.528 441.422 664.954 434.588 665.452L302.769 675.062C295.174 675.616 288.346 679.892 284.533 686.483Z" stroke="url(#paint60_linear_2081_505)" stroke-width="4"/>
<path opacity="0.898551" d="M279.875 690.582L208.156 799.75C204.384 805.492 203.376 812.619 205.408 819.182L247.604 955.462C249.536 961.704 254.032 966.829 259.97 969.558L384.784 1026.92C391.441 1029.98 399.157 1029.69 405.56 1026.13L517.069 964.169C523.473 960.611 527.798 954.215 528.716 946.946L545.929 810.663C546.748 804.18 544.771 797.655 540.491 792.718L447.057 684.908C442.558 679.716 435.974 676.808 429.106 676.978L298.527 680.218C290.986 680.405 284.016 684.278 279.875 690.582Z" stroke="url(#paint61_linear_2081_505)" stroke-width="4"/>
<path opacity="0.913043" d="M275.17 695.294L198.284 798.97C194.181 804.502 192.774 811.583 194.449 818.264L228.361 953.504C229.965 959.899 234.237 965.299 240.092 968.332L359.845 1030.36C366.313 1033.71 373.985 1033.8 380.528 1030.6L494.131 975.049C500.674 971.85 505.315 965.74 506.642 958.578L531.216 825.97C532.417 819.487 530.778 812.8 526.715 807.606L440.797 697.798C436.553 692.373 430.1 689.136 423.214 688.977L294.174 686.001C286.706 685.828 279.619 689.294 275.17 695.294Z" stroke="url(#paint62_linear_2081_505)" stroke-width="4"/>
<path opacity="0.927536" d="M270.379 700.607L188.703 798.556C184.28 803.86 182.475 810.872 183.786 817.653L209.644 951.361C210.908 957.895 214.94 963.562 220.7 966.897L335.248 1033.23C341.513 1036.86 349.121 1037.32 355.782 1034.49L471.123 985.389C477.784 982.554 482.722 976.747 484.45 969.716L516.041 841.174C517.629 834.71 516.34 827.876 512.506 822.435L434.058 711.115C430.079 705.469 423.774 701.91 416.885 701.421L289.671 692.394C282.294 691.871 275.115 694.927 270.379 700.607Z" stroke="url(#paint63_linear_2081_505)" stroke-width="4"/>
<path opacity="0.942029" d="M265.467 706.508L179.388 798.52C174.657 803.577 172.457 810.497 173.398 817.358L191.459 949.066C192.372 955.723 196.151 961.648 201.802 965.284L311.023 1035.55C317.074 1039.44 324.598 1040.28 331.356 1037.81L448.077 995.195C454.836 992.727 460.05 987.239 462.169 980.363L500.415 856.249C502.393 849.828 501.465 842.862 497.874 837.183L426.817 724.825C423.116 718.972 416.974 715.098 410.098 714.28L284.982 699.382C277.714 698.516 270.468 701.162 265.467 706.508Z" stroke="url(#paint64_linear_2081_505)" stroke-width="4"/>
<path opacity="0.956522" d="M260.401 712.978L170.314 798.869C165.288 803.66 162.697 810.466 163.261 817.386L173.811 946.649C174.363 953.412 177.874 959.587 183.403 963.52L287.202 1037.36C293.026 1041.5 300.447 1042.7 307.281 1040.6L425.028 1004.47C431.862 1002.37 437.332 997.218 439.83 990.52L484.349 871.173C486.721 864.815 486.164 857.734 482.827 851.825L419.058 738.894C415.644 732.847 409.681 728.667 402.833 727.519L280.075 706.941C272.932 705.744 265.643 707.981 260.401 712.978Z" stroke="url(#paint65_linear_2081_505)" stroke-width="4"/>
<path opacity="0.971014" d="M255.151 720.002L161.456 799.611C156.151 804.119 153.173 810.788 153.357 817.748L156.706 944.143C156.887 950.995 160.115 957.409 165.51 961.637L263.812 1038.67C269.4 1043.05 276.698 1044.61 283.586 1042.88L402.008 1013.23C408.896 1011.5 414.601 1006.69 417.466 1000.2L467.859 885.923C470.624 879.651 470.449 872.473 467.38 866.344L410.764 753.287C407.647 747.062 401.877 742.584 395.073 741.108L274.918 715.052C267.918 713.534 260.61 715.364 255.151 720.002Z" stroke="url(#paint66_linear_2081_505)" stroke-width="4"/>
<path opacity="0.985507" d="M249.682 727.559L152.787 800.751C147.217 804.959 143.859 811.469 143.659 818.447L140.141 941.579C139.943 948.502 142.875 955.146 148.123 959.665L240.876 1039.54C246.218 1044.14 253.376 1046.04 260.296 1044.68L379.047 1021.47C385.966 1020.12 391.883 1015.67 395.101 1009.4L450.954 900.477C454.114 894.314 454.329 887.056 451.54 880.717L401.918 767.97C399.106 761.581 393.544 756.814 386.8 755.014L269.478 723.69C262.635 721.863 255.333 723.29 249.682 727.559Z" stroke="url(#paint67_linear_2081_505)" stroke-width="4"/>
<path d="M243.965 735.629L144.281 802.294C138.463 806.185 134.733 812.514 134.148 819.489L124.117 938.99C123.531 945.965 126.154 952.827 131.242 957.634L218.418 1039.98C223.506 1044.79 230.506 1047.02 237.436 1046.04L356.174 1029.23C363.104 1028.24 369.21 1024.16 372.764 1018.13L433.652 914.815C437.205 908.785 437.82 901.465 435.321 894.927L392.509 782.907C390.01 776.369 384.67 771.324 378 769.202L263.727 732.831C257.057 730.708 249.784 731.738 243.965 735.629Z" stroke="url(#paint68_linear_2081_505)" stroke-width="4"/>
<defs>
<linearGradient id="paint0_linear_2081_505" x1="734.6" y1="784.326" x2="1495.18" y2="307.971" gradientUnits="userSpaceOnUse">
<stop stop-color="#00ECFF"/>
<stop offset="0.335" stop-color="#00BED7"/>
<stop offset="1" stop-color="#006288"/>
</linearGradient>
<linearGradient id="paint1_linear_2081_505" x1="706.21" y1="760.657" x2="1486.36" y2="327.166" gradientUnits="userSpaceOnUse">
<stop stop-color="#00ECFF"/>
<stop offset="0.335" stop-color="#00BED7"/>
<stop offset="1" stop-color="#006288"/>
</linearGradient>
<linearGradient id="paint2_linear_2081_505" x1="679.504" y1="736.47" x2="1476.82" y2="346.577" gradientUnits="userSpaceOnUse">
<stop stop-color="#00ECFF"/>
<stop offset="0.335" stop-color="#00BED7"/>
<stop offset="1" stop-color="#006288"/>
</linearGradient>
<linearGradient id="paint3_linear_2081_505" x1="654.498" y1="711.858" x2="1466.57" y2="366.167" gradientUnits="userSpaceOnUse">
<stop stop-color="#00ECFF"/>
<stop offset="0.335" stop-color="#00BED7"/>
<stop offset="1" stop-color="#006288"/>
</linearGradient>
<linearGradient id="paint4_linear_2081_505" x1="631.2" y1="686.915" x2="1455.6" y2="385.897" gradientUnits="userSpaceOnUse">
<stop stop-color="#00ECFF"/>
<stop offset="0.335" stop-color="#00BED7"/>
<stop offset="1" stop-color="#006288"/>
</linearGradient>
<linearGradient id="paint5_linear_2081_505" x1="609.619" y1="661.734" x2="1443.91" y2="405.727" gradientUnits="userSpaceOnUse">
<stop stop-color="#00ECFF"/>
<stop offset="0.335" stop-color="#00BED7"/>
<stop offset="1" stop-color="#006288"/>
</linearGradient>
<linearGradient id="paint6_linear_2081_505" x1="589.755" y1="636.407" x2="1431.5" y2="425.617" gradientUnits="userSpaceOnUse">
<stop stop-color="#00ECFF"/>
<stop offset="0.335" stop-color="#00BED7"/>
<stop offset="1" stop-color="#006288"/>
</linearGradient>
<linearGradient id="paint7_linear_2081_505" x1="571.604" y1="611.029" x2="1418.37" y2="445.53" gradientUnits="userSpaceOnUse">
<stop stop-color="#00ECFF"/>
<stop offset="0.335" stop-color="#00BED7"/>
<stop offset="1" stop-color="#006288"/>
</linearGradient>
<linearGradient id="paint8_linear_2081_505" x1="555.157" y1="585.688" x2="1404.52" y2="465.426" gradientUnits="userSpaceOnUse">
<stop stop-color="#00ECFF"/>
<stop offset="0.335" stop-color="#00BED7"/>
<stop offset="1" stop-color="#006288"/>
</linearGradient>
<linearGradient id="paint9_linear_2081_505" x1="540.401" y1="560.477" x2="1389.96" y2="485.269" gradientUnits="userSpaceOnUse">
<stop stop-color="#00ECFF"/>
<stop offset="0.335" stop-color="#00BED7"/>
<stop offset="1" stop-color="#006288"/>
</linearGradient>
<linearGradient id="paint10_linear_2081_505" x1="527.316" y1="535.484" x2="1374.7" y2="505.019" gradientUnits="userSpaceOnUse">
<stop stop-color="#00ECFF"/>
<stop offset="0.335" stop-color="#00BED7"/>
<stop offset="1" stop-color="#006288"/>
</linearGradient>
<linearGradient id="paint11_linear_2081_505" x1="515.879" y1="510.797" x2="1358.74" y2="524.641" gradientUnits="userSpaceOnUse">
<stop stop-color="#00ECFF"/>
<stop offset="0.335" stop-color="#00BED7"/>
<stop offset="1" stop-color="#006288"/>
</linearGradient>
<linearGradient id="paint12_linear_2081_505" x1="506.064" y1="486.501" x2="1342.11" y2="544.098" gradientUnits="userSpaceOnUse">
<stop stop-color="#00ECFF"/>
<stop offset="0.335" stop-color="#00BED7"/>
<stop offset="1" stop-color="#006288"/>
</linearGradient>
<linearGradient id="paint13_linear_2081_505" x1="497.835" y1="462.68" x2="1324.8" y2="563.356" gradientUnits="userSpaceOnUse">
<stop stop-color="#00ECFF"/>
<stop offset="0.335" stop-color="#00BED7"/>
<stop offset="1" stop-color="#006288"/>
</linearGradient>
<linearGradient id="paint14_linear_2081_505" x1="491.159" y1="439.417" x2="1306.85" y2="582.38" gradientUnits="userSpaceOnUse">
<stop stop-color="#00ECFF"/>
<stop offset="0.335" stop-color="#00BED7"/>
<stop offset="1" stop-color="#006288"/>
</linearGradient>
<linearGradient id="paint15_linear_2081_505" x1="485.995" y1="416.789" x2="1288.26" y2="601.136" gradientUnits="userSpaceOnUse">
<stop stop-color="#00ECFF"/>
<stop offset="0.335" stop-color="#00BED7"/>
<stop offset="1" stop-color="#006288"/>
</linearGradient>
<linearGradient id="paint16_linear_2081_505" x1="482.297" y1="394.871" x2="1269.05" y2="619.593" gradientUnits="userSpaceOnUse">
<stop stop-color="#00ECFF"/>
<stop offset="0.335" stop-color="#00BED7"/>
<stop offset="1" stop-color="#006288"/>
</linearGradient>
<linearGradient id="paint17_linear_2081_505" x1="480.016" y1="373.738" x2="1249.25" y2="637.721" gradientUnits="userSpaceOnUse">
<stop stop-color="#00ECFF"/>
<stop offset="0.335" stop-color="#00BED7"/>
<stop offset="1" stop-color="#006288"/>
</linearGradient>
<linearGradient id="paint18_linear_2081_505" x1="479.101" y1="353.461" x2="1228.87" y2="655.49" gradientUnits="userSpaceOnUse">
<stop stop-color="#00ECFF"/>
<stop offset="0.335" stop-color="#00BED7"/>
<stop offset="1" stop-color="#006288"/>
</linearGradient>
<linearGradient id="paint19_linear_2081_505" x1="479.498" y1="334.104" x2="1207.94" y2="672.872" gradientUnits="userSpaceOnUse">
<stop stop-color="#00ECFF"/>
<stop offset="0.335" stop-color="#00BED7"/>
<stop offset="1" stop-color="#006288"/>
</linearGradient>
<linearGradient id="paint20_linear_2081_505" x1="481.147" y1="315.732" x2="1186.49" y2="689.839" gradientUnits="userSpaceOnUse">
<stop stop-color="#00ECFF"/>
<stop offset="0.335" stop-color="#00BED7"/>
<stop offset="1" stop-color="#006288"/>
</linearGradient>
<linearGradient id="paint21_linear_2081_505" x1="483.986" y1="298.404" x2="1164.54" y2="706.367" gradientUnits="userSpaceOnUse">
<stop stop-color="#00ECFF"/>
<stop offset="0.335" stop-color="#00BED7"/>
<stop offset="1" stop-color="#006288"/>
</linearGradient>
<linearGradient id="paint22_linear_2081_505" x1="487.95" y1="282.177" x2="1142.11" y2="722.434" gradientUnits="userSpaceOnUse">
<stop stop-color="#00ECFF"/>
<stop offset="0.335" stop-color="#00BED7"/>
<stop offset="1" stop-color="#006288"/>
</linearGradient>
<linearGradient id="paint23_linear_2081_505" x1="492.972" y1="267.101" x2="1119.24" y2="738.015" gradientUnits="userSpaceOnUse">
<stop stop-color="#00ECFF"/>
<stop offset="0.335" stop-color="#00BED7"/>
<stop offset="1" stop-color="#006288"/>
</linearGradient>
<linearGradient id="paint24_linear_2081_505" x1="498.985" y1="253.227" x2="1095.95" y2="753.093" gradientUnits="userSpaceOnUse">
<stop stop-color="#00ECFF"/>
<stop offset="0.335" stop-color="#00BED7"/>
<stop offset="1" stop-color="#006288"/>
</linearGradient>
<linearGradient id="paint25_linear_2081_505" x1="505.913" y1="240.597" x2="1072.27" y2="767.647" gradientUnits="userSpaceOnUse">
<stop stop-color="#00ECFF"/>
<stop offset="0.335" stop-color="#00BED7"/>
<stop offset="1" stop-color="#006288"/>
</linearGradient>
<linearGradient id="paint26_linear_2081_505" x1="513.688" y1="229.251" x2="1048.25" y2="781.662" gradientUnits="userSpaceOnUse">
<stop stop-color="#00ECFF"/>
<stop offset="0.335" stop-color="#00BED7"/>
<stop offset="1" stop-color="#006288"/>
</linearGradient>
<linearGradient id="paint27_linear_2081_505" x1="522.232" y1="219.224" x2="1023.89" y2="795.121" gradientUnits="userSpaceOnUse">
<stop stop-color="#00ECFF"/>
<stop offset="0.335" stop-color="#00BED7"/>
<stop offset="1" stop-color="#006288"/>
</linearGradient>
<linearGradient id="paint28_linear_2081_505" x1="531.468" y1="210.549" x2="999.249" y2="808.013" gradientUnits="userSpaceOnUse">
<stop stop-color="#00ECFF"/>
<stop offset="0.335" stop-color="#00BED7"/>
<stop offset="1" stop-color="#006288"/>
</linearGradient>
<linearGradient id="paint29_linear_2081_505" x1="541.321" y1="203.251" x2="974.348" y2="820.325" gradientUnits="userSpaceOnUse">
<stop stop-color="#00ECFF"/>
<stop offset="0.335" stop-color="#00BED7"/>
<stop offset="1" stop-color="#006288"/>
</linearGradient>
<linearGradient id="paint30_linear_2081_505" x1="551.71" y1="197.355" x2="949.22" y2="832.049" gradientUnits="userSpaceOnUse">
<stop stop-color="#00ECFF"/>
<stop offset="0.335" stop-color="#00BED7"/>
<stop offset="1" stop-color="#006288"/>
</linearGradient>
<linearGradient id="paint31_linear_2081_505" x1="562.556" y1="192.876" x2="923.899" y2="843.177" gradientUnits="userSpaceOnUse">
<stop stop-color="#00ECFF"/>
<stop offset="0.335" stop-color="#00BED7"/>
<stop offset="1" stop-color="#006288"/>
</linearGradient>
<linearGradient id="paint32_linear_2081_505" x1="573.781" y1="189.83" x2="898.42" y2="853.703" gradientUnits="userSpaceOnUse">
<stop stop-color="#00ECFF"/>
<stop offset="0.335" stop-color="#00BED7"/>
<stop offset="1" stop-color="#006288"/>
</linearGradient>
<linearGradient id="paint33_linear_2081_505" x1="585.305" y1="188.225" x2="872.815" y2="863.623" gradientUnits="userSpaceOnUse">
<stop stop-color="#00ECFF"/>
<stop offset="0.335" stop-color="#00BED7"/>
<stop offset="1" stop-color="#006288"/>
</linearGradient>
<linearGradient id="paint34_linear_2081_505" x1="597.048" y1="188.067" x2="847.118" y2="872.935" gradientUnits="userSpaceOnUse">
<stop stop-color="#00ECFF"/>
<stop offset="0.335" stop-color="#00BED7"/>
<stop offset="1" stop-color="#006288"/>
</linearGradient>
<linearGradient id="paint35_linear_2081_505" x1="608.93" y1="189.355" x2="821.362" y2="881.638" gradientUnits="userSpaceOnUse">
<stop stop-color="#00ECFF"/>
<stop offset="0.335" stop-color="#00BED7"/>
<stop offset="1" stop-color="#006288"/>
</linearGradient>
<linearGradient id="paint36_linear_2081_505" x1="620.873" y1="192.086" x2="795.58" y2="889.736" gradientUnits="userSpaceOnUse">
<stop stop-color="#00ECFF"/>
<stop offset="0.335" stop-color="#00BED7"/>
<stop offset="1" stop-color="#006288"/>
</linearGradient>
<linearGradient id="paint37_linear_2081_505" x1="632.801" y1="196.253" x2="769.806" y2="897.23" gradientUnits="userSpaceOnUse">
<stop stop-color="#00ECFF"/>
<stop offset="0.335" stop-color="#00BED7"/>
<stop offset="1" stop-color="#006288"/>
</linearGradient>
<linearGradient id="paint38_linear_2081_505" x1="644.634" y1="201.842" x2="744.071" y2="904.126" gradientUnits="userSpaceOnUse">
<stop stop-color="#00ECFF"/>
<stop offset="0.335" stop-color="#00BED7"/>
<stop offset="1" stop-color="#006288"/>
</linearGradient>
<linearGradient id="paint39_linear_2081_505" x1="656.299" y1="208.838" x2="718.408" y2="910.432" gradientUnits="userSpaceOnUse">
<stop stop-color="#00ECFF"/>
<stop offset="0.335" stop-color="#00BED7"/>
<stop offset="1" stop-color="#006288"/>
</linearGradient>
<linearGradient id="paint40_linear_2081_505" x1="667.718" y1="217.219" x2="692.846" y2="916.154" gradientUnits="userSpaceOnUse">
<stop stop-color="#00ECFF"/>
<stop offset="0.335" stop-color="#00BED7"/>
<stop offset="1" stop-color="#006288"/>
</linearGradient>
<linearGradient id="paint41_linear_2081_505" x1="678.823" y1="226.963" x2="667.418" y2="921.304" gradientUnits="userSpaceOnUse">
<stop stop-color="#00ECFF"/>
<stop offset="0.335" stop-color="#00BED7"/>
<stop offset="1" stop-color="#006288"/>
</linearGradient>
<linearGradient id="paint42_linear_2081_505" x1="689.54" y1="238.04" x2="642.152" y2="925.893" gradientUnits="userSpaceOnUse">
<stop stop-color="#00ECFF"/>
<stop offset="0.335" stop-color="#00BED7"/>
<stop offset="1" stop-color="#006288"/>
</linearGradient>
<linearGradient id="paint43_linear_2081_505" x1="699.801" y1="250.42" x2="617.077" y2="929.935" gradientUnits="userSpaceOnUse">
<stop stop-color="#00ECFF"/>
<stop offset="0.335" stop-color="#00BED7"/>
<stop offset="1" stop-color="#006288"/>
</linearGradient>
<linearGradient id="paint44_linear_2081_505" x1="709.541" y1="264.067" x2="592.222" y2="933.444" gradientUnits="userSpaceOnUse">
<stop stop-color="#00ECFF"/>
<stop offset="0.335" stop-color="#00BED7"/>
<stop offset="1" stop-color="#006288"/>
</linearGradient>
<linearGradient id="paint45_linear_2081_505" x1="718.695" y1="278.943" x2="567.613" y2="936.437" gradientUnits="userSpaceOnUse">
<stop stop-color="#00ECFF"/>
<stop offset="0.335" stop-color="#00BED7"/>
<stop offset="1" stop-color="#006288"/>
</linearGradient>
<linearGradient id="paint46_linear_2081_505" x1="727.201" y1="295.005" x2="543.276" y2="938.931" gradientUnits="userSpaceOnUse">
<stop stop-color="#00ECFF"/>
<stop offset="0.335" stop-color="#00BED7"/>
<stop offset="1" stop-color="#006288"/>
</linearGradient>
<linearGradient id="paint47_linear_2081_505" x1="735.003" y1="312.211" x2="519.236" y2="940.945" gradientUnits="userSpaceOnUse">
<stop stop-color="#00ECFF"/>
<stop offset="0.335" stop-color="#00BED7"/>
<stop offset="1" stop-color="#006288"/>
</linearGradient>
<linearGradient id="paint48_linear_2081_505" x1="742.042" y1="330.511" x2="495.515" y2="942.498" gradientUnits="userSpaceOnUse">
<stop stop-color="#00ECFF"/>
<stop offset="0.335" stop-color="#00BED7"/>
<stop offset="1" stop-color="#006288"/>
</linearGradient>
<linearGradient id="paint49_linear_2081_505" x1="748.267" y1="349.856" x2="472.138" y2="943.613" gradientUnits="userSpaceOnUse">
<stop stop-color="#00ECFF"/>
<stop offset="0.335" stop-color="#00BED7"/>
<stop offset="1" stop-color="#006288"/>
</linearGradient>
<linearGradient id="paint50_linear_2081_505" x1="753.63" y1="370.193" x2="449.124" y2="944.309" gradientUnits="userSpaceOnUse">
<stop stop-color="#00ECFF"/>
<stop offset="0.335" stop-color="#00BED7"/>
<stop offset="1" stop-color="#006288"/>
</linearGradient>
<linearGradient id="paint51_linear_2081_505" x1="758.08" y1="391.467" x2="426.491" y2="944.613" gradientUnits="userSpaceOnUse">
<stop stop-color="#00ECFF"/>
<stop offset="0.335" stop-color="#00BED7"/>
<stop offset="1" stop-color="#006288"/>
</linearGradient>
<linearGradient id="paint52_linear_2081_505" x1="761.579" y1="413.621" x2="404.259" y2="944.547" gradientUnits="userSpaceOnUse">
<stop stop-color="#00ECFF"/>
<stop offset="0.335" stop-color="#00BED7"/>
<stop offset="1" stop-color="#006288"/>
</linearGradient>
<linearGradient id="paint53_linear_2081_505" x1="764.085" y1="436.595" x2="382.444" y2="944.136" gradientUnits="userSpaceOnUse">
<stop stop-color="#00ECFF"/>
<stop offset="0.335" stop-color="#00BED7"/>
<stop offset="1" stop-color="#006288"/>
</linearGradient>
<linearGradient id="paint54_linear_2081_505" x1="765.564" y1="460.33" x2="361.062" y2="943.405" gradientUnits="userSpaceOnUse">
<stop stop-color="#00ECFF"/>
<stop offset="0.335" stop-color="#00BED7"/>
<stop offset="1" stop-color="#006288"/>
</linearGradient>
<linearGradient id="paint55_linear_2081_505" x1="765.982" y1="484.762" x2="340.126" y2="942.381" gradientUnits="userSpaceOnUse">
<stop stop-color="#00ECFF"/>
<stop offset="0.335" stop-color="#00BED7"/>
<stop offset="1" stop-color="#006288"/>
</linearGradient>
<linearGradient id="paint56_linear_2081_505" x1="765.31" y1="509.829" x2="319.646" y2="941.09" gradientUnits="userSpaceOnUse">
<stop stop-color="#00ECFF"/>
<stop offset="0.335" stop-color="#00BED7"/>
<stop offset="1" stop-color="#006288"/>
</linearGradient>
<linearGradient id="paint57_linear_2081_505" x1="763.526" y1="535.467" x2="299.635" y2="939.56" gradientUnits="userSpaceOnUse">
<stop stop-color="#00ECFF"/>
<stop offset="0.335" stop-color="#00BED7"/>
<stop offset="1" stop-color="#006288"/>
</linearGradient>
<linearGradient id="paint58_linear_2081_505" x1="760.606" y1="561.608" x2="280.101" y2="937.817" gradientUnits="userSpaceOnUse">
<stop stop-color="#00ECFF"/>
<stop offset="0.335" stop-color="#00BED7"/>
<stop offset="1" stop-color="#006288"/>
</linearGradient>
<linearGradient id="paint59_linear_2081_505" x1="756.534" y1="588.188" x2="261.051" y2="935.89" gradientUnits="userSpaceOnUse">
<stop stop-color="#00ECFF"/>
<stop offset="0.335" stop-color="#00BED7"/>
<stop offset="1" stop-color="#006288"/>
</linearGradient>
<linearGradient id="paint60_linear_2081_505" x1="751.297" y1="615.142" x2="242.492" y2="933.807" gradientUnits="userSpaceOnUse">
<stop stop-color="#00ECFF"/>
<stop offset="0.335" stop-color="#00BED7"/>
<stop offset="1" stop-color="#006288"/>
</linearGradient>
<linearGradient id="paint61_linear_2081_505" x1="744.883" y1="642.4" x2="224.426" y2="931.595" gradientUnits="userSpaceOnUse">
<stop stop-color="#00ECFF"/>
<stop offset="0.335" stop-color="#00BED7"/>
<stop offset="1" stop-color="#006288"/>
</linearGradient>
<linearGradient id="paint62_linear_2081_505" x1="737.289" y1="669.897" x2="206.858" y2="929.282" gradientUnits="userSpaceOnUse">
<stop stop-color="#00ECFF"/>
<stop offset="0.335" stop-color="#00BED7"/>
<stop offset="1" stop-color="#006288"/>
</linearGradient>
<linearGradient id="paint63_linear_2081_505" x1="728.51" y1="697.568" x2="189.786" y2="926.897" gradientUnits="userSpaceOnUse">
<stop stop-color="#00ECFF"/>
<stop offset="0.335" stop-color="#00BED7"/>
<stop offset="1" stop-color="#006288"/>
</linearGradient>
<linearGradient id="paint64_linear_2081_505" x1="718.548" y1="725.346" x2="173.211" y2="924.468" gradientUnits="userSpaceOnUse">
<stop stop-color="#00ECFF"/>
<stop offset="0.335" stop-color="#00BED7"/>
<stop offset="1" stop-color="#006288"/>
</linearGradient>
<linearGradient id="paint65_linear_2081_505" x1="707.408" y1="753.164" x2="157.132" y2="922.02" gradientUnits="userSpaceOnUse">
<stop stop-color="#00ECFF"/>
<stop offset="0.335" stop-color="#00BED7"/>
<stop offset="1" stop-color="#006288"/>
</linearGradient>
<linearGradient id="paint66_linear_2081_505" x1="695.101" y1="780.96" x2="141.545" y2="919.583" gradientUnits="userSpaceOnUse">
<stop stop-color="#00ECFF"/>
<stop offset="0.335" stop-color="#00BED7"/>
<stop offset="1" stop-color="#006288"/>
</linearGradient>
<linearGradient id="paint67_linear_2081_505" x1="681.636" y1="808.669" x2="126.443" y2="917.181" gradientUnits="userSpaceOnUse">
<stop stop-color="#00ECFF"/>
<stop offset="0.335" stop-color="#00BED7"/>
<stop offset="1" stop-color="#006288"/>
</linearGradient>
<linearGradient id="paint68_linear_2081_505" x1="667.029" y1="836.23" x2="111.82" y2="914.842" gradientUnits="userSpaceOnUse">
<stop stop-color="#00ECFF"/>
<stop offset="0.335" stop-color="#00BED7"/>
<stop offset="1" stop-color="#006288"/>
</linearGradient>
</defs>
</svg>
